<?xml version="1.0" encoding="utf-8"?>
<!-- Generator: Adobe Illustrator 25.1.0, SVG Export Plug-In . SVG Version: 6.00 Build 0)  -->
<svg version="1.1" id="Layer_1" xmlns="http://www.w3.org/2000/svg" xmlns:xlink="http://www.w3.org/1999/xlink" x="0px" y="0px"
	 viewBox="0 0 290.46 261.5" style="enable-background:new 0 0 290.46 261.5;" xml:space="preserve">
<style type="text/css">
	.st0{fill:#DED396;}
</style>
<g>
	<g>
		<g>
			<path class="st0" d="M71.03,96.96c0.94-0.77,1.16-2.35,2.65-1.5c4.22,3.08,3.86,8.84,8.09,11.91c0.56-0.33,1.14-0.68,1.71-1.01
				c1.97,3.52,3.87,7.32,5.96,11.08c5.32,5.62,10.77,11.07,16.34,16.37c0.4-0.62,0.83-1.13,1.53-0.73c2.5,2.04,4.92,5.79,7.8,9.34
				c0.53,0.43,1.07,0.86,1.59,1.28c0.66,0.11,1.26-0.25,1.63-0.47c1.32,1.59,2.4,3.08,3.38,4.49c17.81,14.17,36.4,28.06,56.29,43.28
				c4.85,2.64,9.68,5.28,13.68,8.43c5.57,4.98,11.03,12.84,15.78,18.33c4.34-5.49,18.79,5.19,21.54-2.15
				c3.16,3.64,7.9,9.12,9.59,8.06c5.07-3.17,12.55-5.04,23.83,1.9c4.01,3.09,7.44,10.39,9.51,10.87c3.27,0.75-1.39-7.56,1.87-6.82
				c-23.77-28.58-49.82-53.16-74.86-80.91c-5.4-3.69-22.75-21.22-40.32-40.14c-17.58-18.9-35.38-39.18-42.12-47.92
				c-0.46-0.49-0.92-0.97-1.38-1.45c-3.81-4.66-8.22-9.64-12.75-14.23c-4.5-4.56-9.27-8.81-13.4-11.62c-4.1-2.3-8.31-4.3-12.26-6.43
				c0.21,2.19,0.43,4.34,0.57,6.31c-2.68-3.56-4.9-7-6.82-7.63c-3.6-2.82-5.39-2.92-6.71-1.5c-1.3,1.4-1.92,4.37-2.82,7.26
				c-0.11,1.72-1.3,2.25-2.43,2.94c-1.11,0.69-2.13,1.54-1.68,4.04c-1.81-2.79-2.7-4.21-4.33-7.16c-0.94,0.32,0.59,2.46,1.97,4.36
				c1.37,1.9,2.53,3.64,0.55,3.61c-1.25-3.07-4.24-5.53-5.83-8.65c-0.88,1.17,0.4,3.98,1.73,6.45c1.31,2.5,2.62,4.7,1.4,5.24
				c-0.79-0.59-1.48-3.12-2.25-5.38c-0.78-2.26-1.66-4.24-3.24-3.75c-0.65,0.21,1.09,3.41,2.03,4.91c-3.41-4.33-6.3-7.91-8.26-8.98
				c-0.98-0.52-1.75-0.39-2.17,0.63c-0.21,0.51-0.34,1.25-0.34,2.22c0.01,0.96,0.12,2.17,0.39,3.64c-0.44-0.88-0.84-1.91-1.23-2.99
				c-0.39-1.09-0.73-2.29-1.1-3.45c-0.35-1.2-0.68-2.41-1.07-3.54c-0.35-1.17-0.74-2.28-1.2-3.27c-0.02,0.01-0.02,0.03-0.04,0.05
				c0.31,1.04,0.59,2.52,0.95,3.94c0.37,1.4,0.73,2.82,1.13,3.71c-0.94-2.23-1.78-4.57-2.53-6.95c-0.31,0.52-0.59,1.08-0.85,1.69
				c0.23,1.94,0.67,3.8,1.39,5.62c-0.61-1.55-1.23-3.09-1.76-4.71c-0.59,1.58-0.96,3.28-1.23,5.19c0.47,6.46,0.77,13,2.4,15.75
				c6.19,11.21,13.17,20.03,19.13,27.7C58.5,81.93,64.68,89.53,71.03,96.96z"/>
		</g>
	</g>
</g>
<g>
	<g>
		<g>
			<path class="st0" d="M56.28,156.01c10.37-9.83,23.32-18.29,35.94-26.88c12.62-8.58,24.94-17.41,33.97-27.6
				c2.67-3.06,5.36-6.16,8.08-9.28c2.73-3.06,5.52-6.21,8.36-9.31c5.69-6.29,11.58-12.56,17.7-18.94c6.12-6.35,12.4-12.7,18.9-18.99
				c3.2-3.14,6.56-6.27,9.82-9.36c3.38-3.09,6.65-6.16,10.08-9.17c1.8,2.04,2.29,7.07,5.43,6.1c5.79-2.45,9.65-2.57,12.44-1.59
				c2.79,0.98,4.54,3.06,6.31,5.14c1.76,2.07-6.63,5.68-2.65,5.84c-6.56,5.71-16.17,16.48-7.99,12.65
				c3.91,0.07,10.64-9.61,15.52-8.33c4.81,1.27,3.2,8.01,7.99,9.29c1.05-0.9,2.63-2.25,4.21-3.6c1.6-1.31,3.2-2.62,4.26-3.49
				c3.82,0.4,3.06,8.06,5.16,6.35c7.95-2.96,15.46-10.44,24.16-16.07c0.74,1.14,2.08,1.9,2.73,2.9c0.32,0.5,0.48,1.06,0.3,1.76
				c-0.13,0.68-0.55,1.48-1.4,2.47c-17.97,12.74-34.87,29.04-52.11,46.63c-17.26,17.57-35.01,36.57-55.47,54.59
				c-20.32,17.86-41.64,33.52-62.66,48.01c-10.53,7.25-20.92,14.2-31.4,21.11c-10.48,6.89-21,13.66-31.57,20.28
				c-10.17,5.32-6.2-4.01-1.46-12.21c-1.58,2.73-3.89-0.64-5.47,2.1c-2.31-3.37-1.46-12.21,7.17-19.78
				c-2.35,1.61-4.7,3.22-7.05,4.83c-3.12,0.49-2.31-3.37-3.85-5.62c2.35-1.61,4.7-3.22,3.93-4.35c-0.77-1.12-2.31-3.37-3.08-4.49
				c-2.35,1.61-7.05,4.83-9.4,6.44c2.35-1.61,4.7-3.22,3.93-4.34c-0.77-1.12-2.31-3.37-3.08-4.5c3.93-4.34,12.52-6.92,16.45-11.27
				l-2.31-3.37c-5.47,2.1-11.75,8.05-16.45,11.27c1.58-2.74,0.81-3.86-0.73-6.11c6.28-5.95,15.64-7.41,20.37-15.61l-7.05,4.83
				C35.17,165.52,50,161.97,56.28,156.01z"/>
		</g>
	</g>
</g>
</svg>
